# xmcd
#
# Track frame offsets: 
#        150
#        2840
#        34157
#        57150
#        80007
#        102390
#        132427
#        164842
#        187855
#        214050
#
# Disc length: 3263 seconds
#
# Revision: 0
# Processed by: cddbd v1.5.2PL0 Copyright (c) Steve Scherf et al.
# Submitted via: ExactAudioCopy v1.0b3
#
DISCID=890cbd0a
DTITLE=Dark Moor - Shadowland [Disc 1]
DYEAR=2005
DGENRE=Metal
TTITLE0=Shadowland
TTITLE1=Walhalla
TTITLE2=Dragon Into The Fire
TTITLE3=Calling On The Wind
TTITLE4=Magic Land
TTITLE5=Flying
TTITLE6=Time Is The Avenger
TTITLE7=Born In The Dark
TTITLE8=The King's Sword
TTITLE9=The Call
EXTD=
EXTT0=
EXTT1=
EXTT2=
EXTT3=
EXTT4=
EXTT5=
EXTT6=
EXTT7=
EXTT8=
EXTT9=
PLAYORDER=
